# Blender 5.1.1
# www.blender.org
mtllib Haunted_Exterior_House.mtl
o Cube.002
v -32.438183 -0.019651 55.071442
v -32.438183 24.839321 55.071442
v -32.438183 -0.019651 -55.071442
v -32.438183 24.839321 -55.071442
v 56.951653 -0.019651 55.071442
v 56.951653 24.839321 55.071442
v 56.951653 -0.019651 -55.071442
v 56.951653 24.839321 -55.071442
v 8.476881 -0.019651 55.071442
v 19.874008 -0.019651 55.071442
v 19.866447 16.323208 55.071442
v 8.492473 16.320021 55.071442
v -32.438183 -0.019651 32.004562
v -32.438183 -0.019651 43.541836
v -32.438183 17.253954 43.560139
v -32.438183 17.247490 32.029037
v -31.658640 -0.019651 43.541836
v -31.658640 -0.019651 32.004562
v -31.658640 17.253954 43.560139
v -31.658640 17.247490 32.029037
v 8.476881 -0.019651 54.286869
v 19.874008 -0.019651 54.286869
v 19.866447 16.323208 54.286869
v 8.492473 16.320021 54.286869
v 64.321701 24.839321 67.583832
v -39.808239 24.839321 67.583832
v 53.046608 46.212723 54.385536
v -28.533138 46.212723 54.385536
v -39.808239 24.839321 -67.583832
v 64.321701 24.839321 -67.583832
v -28.533138 46.212723 -13.971813
v 53.046608 46.212723 -13.971813
v -32.438183 24.839321 32.039803
v -32.438183 24.839321 43.555893
v -32.438183 17.371002 -55.071442
v -32.438183 17.260397 55.071442
v -32.438183 16.359095 55.071442
v 8.500597 24.839321 55.071442
v 19.864061 24.839321 55.071442
v 56.951653 16.333603 55.071442
vn -1.0000 -0.0000 -0.0000
vn -0.0000 -0.0000 -1.0000
vn -0.0000 -0.0000 1.0000
vn -0.0000 -1.0000 -0.0000
vn 0.0003 -1.0000 -0.0000
vn -0.0000 -0.0014 1.0000
vn 0.8845 0.4666 -0.0000
vn -0.8845 0.4666 -0.0000
vn -0.0000 1.0000 -0.0000
vn -0.0000 0.0011 -1.0000
vn -0.0000 -1.0000 0.0006
vn 1.0000 -0.0010 -0.0000
vn -1.0000 -0.0005 -0.0000
vn -0.0000 0.5254 0.8508
vn -0.0000 0.9289 -0.3703
vn 1.0000 -0.0000 -0.0000
vn -0.0000 0.5254 0.8509
vt 0.990492 0.551423
vt 0.928648 0.558017
vt 0.928113 0.435056
vt 0.433964 0.273563
vt 0.009420 0.325143
vt 0.009420 0.153455
vt 0.433877 0.440990
vt 0.257212 0.553880
vt 0.257239 0.440990
vt 0.061192 0.970332
vt 0.051165 0.838677
vt 0.061192 0.848705
vt 0.046954 0.886533
vt 0.026500 0.814262
vt 0.046954 0.814262
vt 0.159492 0.838678
vt 0.149465 0.848706
vt 0.020490 0.996368
vt 0.006502 0.888821
vt 0.020490 0.888821
vt 0.140236 0.970333
vt 0.159492 0.980361
vt 0.051165 0.980360
vt 0.149465 0.899168
vt 0.648615 0.751810
vt 0.496278 0.770175
vt 0.496278 0.752750
vt 0.498779 0.708293
vt 0.651114 0.726658
vt 0.498779 0.742749
vt 0.217216 0.721459
vt 0.455410 0.953358
vt 0.215907 0.953050
vt 0.915312 0.786557
vt 0.844207 0.909624
vt 0.844169 0.786557
vt 0.004563 0.694754
vt 0.022520 0.802324
vt 0.004563 0.802324
vt 0.019616 0.884937
vt 0.003557 0.813634
vt 0.019616 0.813635
vt 0.773077 0.782108
vt 0.695782 0.894037
vt 0.695676 0.782108
vt 0.046514 0.794609
vt 0.026631 0.692840
vt 0.046514 0.692840
vt 0.028793 0.891589
vt 0.047008 0.993379
vt 0.028793 0.993379
vt 0.653046 0.896984
vt 0.500720 0.856798
vt 0.653046 0.861678
vt 0.655935 0.839971
vt 0.503488 0.799786
vt 0.655935 0.804666
vt 0.985325 0.321592
vt 0.449562 0.262839
vt 0.449562 0.149879
vt 0.878063 0.612197
vt 0.451809 0.560575
vt 0.855552 0.558235
vt 0.451361 0.436780
vt 0.990515 0.557839
vt 0.934388 0.611993
vt 0.179418 0.553858
vt 0.013262 0.440990
vt 0.179363 0.440990
vt 0.205896 0.612705
vt 0.013262 0.560353
vt 0.013262 0.554128
vt 0.433877 0.553952
vt 0.259365 0.612705
vt 0.990071 0.434832
vt 0.433964 0.153455
vt 0.433964 0.325143
vt 0.026500 0.886533
vt 0.006502 0.996368
vt 0.131006 0.970333
vt 0.149465 0.970333
vt 0.149465 0.914630
vt 0.648615 0.786265
vt 0.651114 0.709233
vt 0.456720 0.721768
vt 0.915312 0.909670
vt 0.022520 0.694754
vt 0.003557 0.884936
vt 0.773026 0.894059
vt 0.026631 0.794609
vt 0.047008 0.891589
vt 0.500720 0.901863
vt 0.503488 0.844851
vt 0.985325 0.149879
vt 0.449562 0.321592
vt 0.452001 0.613737
vt 0.854988 0.435321
vt 0.990710 0.611789
vt 0.013262 0.612705
vt 0.433877 0.612705
s 0
usemtl Material.002
f 37/1/1 15/2/1 14/3/1
f 35/4/2 8/5/2 7/6/2
f 5/7/3 11/8/3 10/9/3
f 4/10/4 30/11/4 8/12/4
f 12/13/5 23/14/5 11/15/5
f 8/12/4 25/16/4 6/17/4
f 13/18/6 20/19/6 16/20/6
f 34/21/4 26/22/4 29/23/4
f 39/24/4 25/16/4 26/22/4
f 25/25/7 32/26/7 27/27/7
f 26/28/8 31/29/8 29/30/8
f 27/31/9 31/32/9 28/33/9
f 17/34/1 20/35/1 18/36/1
f 15/37/10 17/38/10 14/39/10
f 16/40/11 19/41/11 15/42/11
f 22/43/3 24/44/3 21/45/3
f 9/46/12 24/47/12 12/48/12
f 11/49/13 22/50/13 10/51/13
f 28/52/14 25/53/14 27/54/14
f 32/55/15 29/56/15 31/57/15
f 8/58/16 40/59/16 5/60/16
f 33/61/1 35/62/1 16/63/1
f 15/2/1 33/61/1 16/63/1
f 3/64/1 16/63/1 35/62/1
f 36/65/1 34/66/1 15/2/1
f 12/67/3 1/68/3 9/69/3
f 38/70/3 36/71/3 37/72/3
f 11/8/3 38/70/3 12/67/3
f 40/73/3 39/74/3 11/8/3
f 14/3/1 1/75/1 37/1/1
f 37/1/1 36/65/1 15/2/1
f 7/6/2 3/76/2 35/4/2
f 35/4/2 4/77/2 8/5/2
f 5/7/3 40/73/3 11/8/3
f 4/10/4 29/23/4 30/11/4
f 12/13/5 24/78/5 23/14/5
f 8/12/4 30/11/4 25/16/4
f 13/18/6 18/79/6 20/19/6
f 29/23/4 4/10/4 33/80/4
f 34/21/4 2/81/4 26/22/4
f 29/23/4 33/80/4 34/21/4
f 26/22/4 2/81/4 38/82/4
f 39/24/4 6/17/4 25/16/4
f 26/22/4 38/82/4 39/24/4
f 25/25/7 30/83/7 32/26/7
f 26/28/8 28/84/8 31/29/8
f 27/31/9 32/85/9 31/32/9
f 17/34/1 19/86/1 20/35/1
f 15/37/10 19/87/10 17/38/10
f 16/40/11 20/88/11 19/41/11
f 22/43/3 23/89/3 24/44/3
f 9/46/12 21/90/12 24/47/12
f 11/49/13 23/91/13 22/50/13
f 28/52/17 26/92/17 25/53/17
f 32/55/15 30/93/15 29/56/15
f 5/60/16 7/94/16 8/58/16
f 8/58/16 6/95/16 40/59/16
f 33/61/1 4/96/1 35/62/1
f 15/2/1 34/66/1 33/61/1
f 3/64/1 13/97/1 16/63/1
f 36/65/1 2/98/1 34/66/1
f 12/67/3 37/72/3 1/68/3
f 37/72/3 12/67/3 38/70/3
f 38/70/3 2/99/3 36/71/3
f 11/8/3 39/74/3 38/70/3
f 40/73/3 6/100/3 39/74/3
